<svg xmlns="http://www.w3.org/2000/svg" width="87" height="30" viewBox="0 0 87 30" fill="none">
  <path d="M33.738 6.90614C33.5378 6.96936 33.2744 7.19411 33.1691 7.39077L33.0918 7.53475V22.4597L33.1761 22.6107C33.2849 22.8109 33.5237 23.0041 33.752 23.0813C34.0365 23.1726 34.7494 23.1691 35.0338 23.0708C35.3042 22.9795 35.5044 22.7969 35.6203 22.53L35.7081 22.3333V20.5528C35.7081 19.4993 35.7221 18.7513 35.7432 18.7197C35.7818 18.66 35.7607 18.6389 36.0768 19.0533C36.2102 19.2254 36.3296 19.3764 36.3402 19.3869C36.3542 19.3975 36.5474 19.6398 36.7721 19.9313C37.4815 20.8513 37.8889 21.3676 37.9486 21.4413C37.9837 21.4799 38.1698 21.7152 38.363 21.9681C39.1355 22.9619 39.4657 23.1445 40.4876 23.1445C41.1232 23.1445 41.3023 23.0954 41.5552 22.846C42.0679 22.3474 41.9098 21.5677 41.2321 21.2447C41.0179 21.1428 40.8598 20.9743 40.4314 20.4018C40.2909 20.2157 39.7677 19.545 39.7466 19.5274C39.7361 19.5169 39.5605 19.2956 39.3603 19.0358C39.1566 18.7759 38.9845 18.5547 38.974 18.5441C38.9635 18.5336 38.7879 18.3123 38.5877 18.0525C38.3875 17.7926 38.2155 17.5714 38.2049 17.5608C38.1909 17.5503 38.1242 17.4695 38.0539 17.3782C37.917 17.2132 37.8818 17.0622 37.9661 17.0095C37.9907 16.9954 38.2049 16.7672 38.4437 16.5073C38.686 16.2474 38.9916 15.9138 39.1285 15.7698C39.2655 15.6223 39.5429 15.3238 39.7466 15.1026C40.9055 13.8419 40.9687 13.7751 41.1654 13.6838C41.5411 13.5118 41.7483 13.1992 41.7483 12.8024C41.7483 12.4512 41.5797 12.1387 41.2812 11.9525C41.0811 11.8261 40.6035 11.777 40.0802 11.8261C39.8625 11.8507 39.6518 11.8823 39.6167 11.9034C39.5815 11.9209 39.4762 11.9736 39.3779 12.0193C39.1917 12.1035 38.679 12.5882 38.1979 13.1325C38.0539 13.294 37.9205 13.445 37.8994 13.4661C37.8818 13.4872 37.6992 13.6874 37.4991 13.9086C37.3024 14.1298 37.0074 14.4529 36.8494 14.6285C36.5579 14.9481 35.9574 15.6188 35.8556 15.7382C35.7081 15.9103 35.7081 15.9384 35.7081 11.6997C35.7081 7.26786 35.7186 7.51719 35.4903 7.22571C35.3639 7.06769 35.1883 6.9518 34.9846 6.8921C34.781 6.8324 33.9452 6.84293 33.738 6.90614Z" fill="white"/>
  <path d="M63.1666 6.90615C62.9664 6.96936 62.703 7.1906 62.5977 7.39077L62.5204 7.53476L62.5099 9.86305C62.5029 11.7945 62.4923 12.1949 62.4537 12.2089C62.4256 12.2194 62.2957 12.1738 62.1657 12.1036C61.7513 11.8964 61.4669 11.791 61.0104 11.6892C60.6732 11.6154 59.3247 11.626 59.0087 11.7067C58.5205 11.8296 58.3695 11.8823 57.9902 12.0649C57.33 12.381 56.7541 12.8797 56.3502 13.4872C55.8867 14.1895 55.6584 14.7865 55.4442 15.8752C55.3037 16.5916 55.3037 18.3615 55.4477 19.0709C55.5706 19.703 55.6725 20.0858 55.7989 20.3948C55.8235 20.4475 55.8621 20.5493 55.8902 20.6161C56.3046 21.6274 57.1334 22.5054 58.078 22.9373C58.6048 23.1796 59.4547 23.3552 60.0797 23.3552C60.9155 23.3552 61.8848 23.0673 62.5274 22.6318L62.6574 22.544L62.847 22.7407C63.2122 23.1199 63.5178 23.2464 64.0656 23.2499C64.631 23.2499 65.0946 23.0673 65.386 22.7266C65.6213 22.4562 65.6635 22.2982 65.6635 21.7223C65.6635 21.3851 65.6494 21.2131 65.6213 21.185C65.5967 21.1604 65.4984 21.1428 65.4001 21.1428C65.3017 21.1428 65.2034 21.1253 65.1788 21.1007C65.1472 21.0691 65.1367 19.5169 65.1367 14.33V7.60499L65.0524 7.4294C64.9435 7.19411 64.6907 6.97287 64.4519 6.90264C64.2096 6.8324 63.3984 6.83591 63.1666 6.90615ZM60.4906 14.1228C60.8734 14.1755 61.2948 14.337 61.6074 14.5513C61.8251 14.7023 62.2746 15.1939 62.3905 15.4081L62.5029 15.6223V19.3483L62.3764 19.5625C62.106 20.0226 61.6179 20.444 61.0982 20.6652C60.7716 20.8022 60.5503 20.8408 60.1149 20.8443C59.4652 20.8443 59.1245 20.7144 58.7347 20.314C58.5662 20.1385 58.2782 19.6187 58.2115 19.3624C58.0254 18.646 58.0008 18.4493 58.0008 17.473C58.0008 16.4968 58.0254 16.2931 58.2115 15.5872C58.2782 15.3379 58.5311 14.8708 58.7137 14.6707C59.0016 14.3511 59.2404 14.2106 59.6408 14.1369C59.9533 14.0772 60.15 14.0737 60.4906 14.1228Z" fill="white"/>
  <path d="M47.2267 11.6611C46.7666 11.7383 46.4119 11.8296 46.1837 11.928C46.124 11.9561 46.0643 11.9771 46.0502 11.9771C46.0362 11.9771 45.8641 12.0579 45.6674 12.1562C44.4453 12.7673 43.5428 13.9718 43.1741 15.4889C43.0161 16.1245 42.9774 16.5354 42.9774 17.4906C42.9774 18.4493 42.9915 18.6179 43.1565 19.3694C43.3918 20.444 43.9677 21.4764 44.6877 22.1226C45.4357 22.7898 46.2574 23.148 47.4023 23.3026C47.9325 23.3728 48.3329 23.3693 48.9299 23.2885C50.0536 23.134 50.9386 22.7266 51.6655 22.0243C52.2309 21.48 52.7261 20.6477 52.9719 19.8259C53.3231 18.6705 53.4004 17.2764 53.1826 16.0157C53.0632 15.3133 52.9122 14.8427 52.6137 14.2387C52.2836 13.5609 51.8341 13.0201 51.2301 12.5636C50.5945 12.0825 49.9202 11.8086 49.0001 11.6611C48.7824 11.626 47.4444 11.626 47.2267 11.6611ZM48.5155 14.1228C49.0914 14.1966 49.3969 14.3511 49.8078 14.7655C50.3557 15.3203 50.6366 16.2299 50.6401 17.4555C50.6436 17.9822 50.5734 18.6144 50.4856 18.8953C50.2819 19.552 50.1063 19.8821 49.8113 20.1876C49.562 20.4475 49.2986 20.6125 48.9474 20.7355C48.677 20.8268 48.6033 20.8373 48.1748 20.8408C47.8166 20.8443 47.6411 20.8268 47.4549 20.7776C46.2399 20.458 45.6113 19.3308 45.6113 17.473C45.6113 16.5635 45.7658 15.8225 46.0678 15.2606C46.2012 15.0148 46.2083 15.0043 46.4962 14.7128C46.9808 14.2211 47.6972 14.0104 48.5155 14.1228Z" fill="white"/>
  <path d="M82.4673 11.6505C81.7052 11.8156 81.3154 11.9806 80.8343 12.3494C80.3356 12.7286 79.9107 13.3256 79.7211 13.9051C79.6298 14.1966 79.5349 14.762 79.5349 15.0499C79.5349 15.3238 79.6262 15.8717 79.7105 16.121C79.844 16.5038 80.1635 17.0165 80.448 17.3045C80.8132 17.6732 81.2978 17.9858 81.9405 18.2667C82.0459 18.3123 82.404 18.4212 82.6428 18.4844C83.4435 18.6916 83.8052 18.8321 84.023 19.0182C84.0862 19.0709 84.1845 19.1973 84.2407 19.2956C84.3355 19.4607 84.3461 19.5028 84.3461 19.8154C84.3461 20.314 84.2091 20.5915 83.872 20.7671C83.6964 20.8549 83.3698 20.9286 83.131 20.9321C82.7903 20.9321 82.1442 20.8127 81.8351 20.6863C81.6385 20.609 81.1784 20.3737 80.9748 20.2508C80.5288 19.9839 80.2443 19.9313 79.8966 20.0542C79.6614 20.1349 79.4893 20.2895 79.3839 20.5107C79.3137 20.6512 79.3067 20.7284 79.3067 21.199C79.3067 21.7117 79.3102 21.7328 79.4085 21.9295C79.7527 22.6107 80.9467 23.1551 82.3795 23.285C83.4751 23.3833 84.332 23.2604 85.0554 22.8987C85.5752 22.6423 86.1019 22.1928 86.3864 21.7679C86.5409 21.5361 86.7692 21.0726 86.7692 20.9953C86.7692 20.9707 86.7832 20.9321 86.8008 20.911C86.8148 20.8935 86.8605 20.753 86.8956 20.5985C86.9799 20.2473 86.9904 19.2114 86.9132 18.8777C86.7692 18.2316 86.5058 17.7434 86.0703 17.315C85.4874 16.7356 84.7148 16.3563 83.5384 16.0683C82.9589 15.9243 82.6499 15.7909 82.4251 15.5837C82.1723 15.3519 82.1266 15.2255 82.1407 14.8217C82.1512 14.4986 82.1582 14.4705 82.2601 14.3405C82.4146 14.1474 82.5972 14.0596 82.9484 14.0104C83.1977 13.9718 83.3241 13.9718 83.6121 14.0104C84.0546 14.0631 84.3425 14.1895 84.8061 14.5372C85.2626 14.8743 85.3855 14.927 85.7262 14.927C86.0458 14.927 86.2319 14.8568 86.404 14.6742C86.6182 14.4494 86.6463 14.337 86.6463 13.733C86.6428 13.2379 86.6357 13.1746 86.562 13.0166C86.274 12.4091 85.2451 11.8542 84.0476 11.6611C83.8404 11.6295 82.6077 11.6189 82.4673 11.6505Z" fill="white"/>
  <path d="M68.8662 11.8367C68.515 11.8999 68.1814 12.2089 68.0901 12.5566C68.0374 12.7462 68.0374 19.71 68.0866 20.1876C68.1322 20.609 68.2832 21.2271 68.3991 21.4519C68.4167 21.4835 68.4694 21.5888 68.5115 21.6801C68.6485 21.9611 69.0137 22.3895 69.2876 22.5967C69.9022 23.0567 70.5413 23.2499 71.4544 23.2499C72.0373 23.2499 72.4236 23.1902 72.9679 23.0181C73.5017 22.8495 73.579 22.8214 74.0109 22.6037C74.2251 22.4949 74.4148 22.4071 74.4358 22.4071C74.4569 22.4071 74.5307 22.4949 74.6044 22.6002C74.8959 23.0427 75.3033 23.2464 75.8932 23.2499C76.6799 23.2499 77.2242 22.9373 77.463 22.3368C77.5332 22.1612 77.5402 22.1015 77.5227 21.6731C77.5051 21.3465 77.4876 21.192 77.456 21.1709C77.4314 21.1569 77.3401 21.1428 77.2523 21.1428C77.1645 21.1428 77.0732 21.1288 77.0521 21.1147C77.017 21.0937 77.0065 20.1525 76.9994 16.8234L76.9889 12.5566L76.8941 12.381C76.7993 12.2019 76.6448 12.0368 76.4657 11.928C76.1882 11.7559 75.1242 11.7734 74.8362 11.9561C74.6466 12.0755 74.5272 12.2054 74.4323 12.3985L74.3551 12.5566L74.3375 19.6644L74.2041 19.7662C73.8529 20.0436 73.3015 20.3246 72.7397 20.5142C72.4025 20.6301 72.3674 20.6336 71.8617 20.6336C71.349 20.6336 71.3314 20.6301 71.1559 20.5353C70.9452 20.4194 70.8538 20.307 70.7766 20.0752C70.7274 19.9278 70.7204 19.5169 70.7204 16.3036C70.7169 12.2581 70.7344 12.4934 70.4605 12.1668C70.2428 11.9069 70.0426 11.8331 69.5018 11.8191C69.2525 11.8121 68.968 11.8191 68.8662 11.8367Z" fill="white"/>
  <path d="M10.917 16.4179L15.0781 11.424L16.5858 9.59111C16.5951 9.59421 18.1524 7.73349 20.041 5.45791C21.9327 3.18233 23.5891 1.20706 23.7284 1.06774C24.4467 0.337076 25.5396 -0.0499268 26.5582 0.0615292C27.9173 0.207043 28.9917 1.07393 29.3849 2.34021C29.5613 2.90988 29.5768 3.58171 29.4251 4.16686C29.2734 4.75201 28.9174 5.35574 28.2703 6.12046C28.0164 6.42387 20.9636 14.9101 20.8831 15.0092C20.8274 15.0804 20.8274 15.0804 21.1184 15.4116C21.2763 15.5974 22.3971 16.9163 23.6046 18.3467C29.326 25.1208 28.874 24.5728 29.1093 25.0186C29.7099 26.158 29.6573 27.4707 28.9731 28.4893C28.7904 28.7586 28.357 29.1983 28.0938 29.3809C27.4901 29.7958 26.9049 29.9816 26.1867 29.9816C25.3105 29.9816 24.6108 29.7029 23.8925 29.0682C23.6262 28.836 22.9884 28.1239 22.8244 27.8825C22.4962 27.3902 22.6107 26.6936 23.0782 26.3375C23.4745 26.0341 24.0411 26.0156 24.4436 26.2911C24.5148 26.3406 24.7346 26.5697 24.9328 26.7958C25.1278 27.0249 25.3569 27.2694 25.4374 27.3407C25.9111 27.7586 26.4715 27.7679 26.8925 27.3623C27.2703 27.0001 27.3105 26.4738 26.9947 25.997C26.8864 25.8329 25.0256 23.6192 21.072 18.9504C20.0565 17.7492 19.0131 16.5231 18.7593 16.2259C18.2236 15.6067 18.1586 15.489 18.1555 15.1113C18.1524 14.8451 18.2174 14.6222 18.3537 14.4333C18.4373 14.3187 25.8244 5.42076 26.487 4.63746C27.0752 3.94085 27.2269 3.65292 27.2022 3.26592C27.1774 2.91297 27.004 2.63123 26.7037 2.47024C26.5891 2.41142 26.5272 2.40213 26.2176 2.40213C25.877 2.40213 25.8492 2.40832 25.6603 2.5012C25.5489 2.55693 25.4095 2.65291 25.3476 2.71792C25.2857 2.78294 24.5148 3.70556 23.6293 4.77059C18.3134 11.1732 6.86118 24.9103 6.70018 25.0744C6.47108 25.3097 6.28841 25.4304 6.0655 25.4954C5.58871 25.6347 5.01904 25.4521 4.72801 25.062C4.5794 24.8669 4.49271 24.6316 4.44936 24.3127C4.43079 24.1548 4.4215 20.9288 4.42769 14.8172C4.43698 5.92851 4.44008 5.55389 4.49271 5.3898C4.66918 4.86657 5.08715 4.55387 5.61347 4.55387C5.89521 4.55387 6.10265 4.62508 6.41225 4.83251C6.86118 5.13283 7.07171 5.36193 8.85193 7.46414C10.8334 9.80474 11.8675 11.071 11.9449 11.2413C12.0068 11.3806 12.0223 11.4611 12.0223 11.6902C12.0223 11.9379 12.013 11.9905 11.9263 12.1701C11.8056 12.4271 11.6136 12.619 11.3566 12.7398C11.1771 12.8265 11.1244 12.8358 10.8767 12.8358C10.6383 12.8358 10.5733 12.8234 10.4185 12.7522C10.3195 12.7057 10.1956 12.6314 10.1461 12.5912C10.0965 12.5478 9.51758 11.8698 8.85812 11.0803C8.19557 10.2908 7.45562 9.40535 7.20793 9.11123L6.75901 8.57871L6.74972 11.7831C6.74662 13.5447 6.74662 16.4333 6.74972 18.1981L6.75901 21.4087L10.917 16.4179Z" fill="url(#paint0_linear_59_1238)"/>
  <path d="M0.239569 4.23145C0.834008 1.89395 2.64209 0.311874 5.04152 0.0363274C6.59882 -0.143242 8.1778 0.349026 9.35429 1.37691C9.65461 1.64317 13.6825 6.20981 15.9086 8.81048C16.2708 9.23463 16.5773 9.58758 16.5866 9.59068L15.0789 11.4235L14.9581 11.278C14.4658 10.6712 11.9642 7.79498 8.4936 3.84444C7.8651 3.12617 7.59575 2.89396 7.13134 2.66486C5.81243 2.0085 4.06008 2.34906 3.16842 3.43267C2.68544 4.01473 2.44395 4.67108 2.37583 5.57512C2.3201 6.28721 2.3201 24.303 2.37274 24.6312C2.44704 25.077 2.56469 25.4609 2.73188 25.8108C3.25511 26.8789 4.1158 27.5043 5.26753 27.6498C6.28612 27.7768 7.17159 27.4703 8.0261 26.687C8.25211 26.4795 9.25832 25.3092 11.0014 23.2225C11.732 22.3463 12.407 21.5506 12.503 21.4547C13.0943 20.8664 14.0943 21.0924 14.3915 21.8819C14.4844 22.1327 14.472 22.5166 14.3575 22.7581C14.3049 22.8726 13.8838 23.4021 13.0602 24.3835C11.6082 26.1173 10.4193 27.5167 10.0385 27.9439C8.71651 29.4177 6.927 30.1576 5.1344 29.9718C4.25822 29.879 3.36347 29.5848 2.69163 29.1607C1.88047 28.6529 1.12194 27.8077 0.682302 26.9223C0.27053 26.0956 0.0754797 25.3123 0.0228471 24.2751C-0.00811326 23.6126 -0.00811326 12.9003 0.0259431 8.46991C0.0538074 4.95901 0.0507114 4.97759 0.239569 4.23145Z" fill="url(#paint1_linear_59_1238)"/>
  <defs>
    <linearGradient id="paint0_linear_59_1238" x1="29.5194" y1="15.0155" x2="4.41973" y2="15.1505" gradientUnits="userSpaceOnUse">
      <stop offset="0.149262" stop-color="#F59220"/>
      <stop offset="0.476924" stop-color="#EF4C4B"/>
      <stop offset="0.690489" stop-color="#6A57A4"/>
      <stop offset="1" stop-color="#EF4C4B"/>
    </linearGradient>
    <linearGradient id="paint1_linear_59_1238" x1="16.5881" y1="14.9887" x2="-0.00481264" y2="15.0466" gradientUnits="userSpaceOnUse">
      <stop offset="0.119096" stop-color="#F59220"/>
      <stop offset="0.47756" stop-color="#EF4C4B"/>
      <stop offset="0.650154" stop-color="#6A57A4"/>
      <stop offset="1" stop-color="#EF4C4B"/>
    </linearGradient>
  </defs>
</svg>
